<svg xmlns="http://www.w3.org/2000/svg" width="1200" height="720" viewBox="0 0 1200 720">
  <defs>
    <linearGradient id="bg" x1="0" y1="0" x2="0" y2="1"><stop stop-color="#08101f"/><stop offset="1" stop-color="#050814"/></linearGradient>
    <linearGradient id="ship" x1="0" y1="0" x2="0" y2="1"><stop stop-color="#dff4ff"/><stop offset=".45" stop-color="#84a9ff"/><stop offset="1" stop-color="#4960d4"/></linearGradient>
    <radialGradient id="orb"><stop stop-color="#b9fff5"/><stop offset=".45" stop-color="#3bb5ff" stop-opacity=".7"/><stop offset="1" stop-color="#3bb5ff" stop-opacity="0"/></radialGradient>
    <radialGradient id="rock"><stop stop-color="#7d879f"/><stop offset="1" stop-color="#2b3245"/></radialGradient>
  </defs>
  <rect width="1200" height="720" fill="#05070d"/>
  <rect x="42" y="36" width="1116" height="106" rx="26" fill="#0b0f1b" stroke="#fff" stroke-opacity=".08"/>
  <text x="70" y="70" fill="#8db5ff" font-family="Arial" font-size="13" letter-spacing="3">ANGULAR ARCADE BUILD</text>
  <text x="70" y="110" fill="#fff" font-family="Arial" font-size="34" font-weight="700">Neon Dodge</text>
  <g font-family="Arial"><text x="705" y="72" fill="#c6d4ff" font-size="13">SCORE</text><text x="705" y="112" fill="#fff" font-size="32" font-weight="700">1264</text><text x="845" y="72" fill="#c6d4ff" font-size="13">LIVES</text><text x="845" y="112" fill="#fff" font-size="32" font-weight="700">2</text><text x="960" y="72" fill="#c6d4ff" font-size="13">BEST</text><text x="960" y="112" fill="#fff" font-size="32" font-weight="700">1840</text></g>
  <rect x="42" y="164" width="838" height="516" rx="32" fill="url(#bg)" stroke="#fff" stroke-opacity=".08"/>
  <g stroke="#6e8eff" stroke-opacity=".10"><path d="M90 164v516M138 164v516M186 164v516M234 164v516M282 164v516M330 164v516M378 164v516M426 164v516M474 164v516M522 164v516M570 164v516M618 164v516M666 164v516M714 164v516M762 164v516M810 164v516"/><path d="M42 212h838M42 260h838M42 308h838M42 356h838M42 404h838M42 452h838M42 500h838M42 548h838M42 596h838M42 644h838"/></g>
  <g fill="#bddcff" opacity=".72"><circle cx="95" cy="210" r="2"/><circle cx="155" cy="301" r="1.5"/><circle cx="248" cy="240" r="2.2"/><circle cx="330" cy="415" r="1.7"/><circle cx="460" cy="280" r="1.7"/><circle cx="560" cy="364" r="2.4"/><circle cx="720" cy="245" r="1.8"/><circle cx="830" cy="510" r="2.2"/></g>
  <rect x="58" y="180" width="218" height="54" fill="#04070e" fill-opacity=".72" stroke="#8db5ff" stroke-opacity=".22"/><text x="74" y="202" fill="#dce8ff" font-family="Arial" font-size="17" font-weight="700">Score  1264</text><text x="74" y="224" fill="#dce8ff" font-family="Arial" font-size="17" font-weight="700">Lives  2</text><text x="710" y="202" fill="#cbd8f5" font-family="Arial" font-size="14" font-weight="600">Difficulty  4.5x</text><text x="710" y="224" fill="#cbd8f5" font-family="Arial" font-size="14" font-weight="600">Best  1840</text>
  <g fill="url(#rock)" stroke="#fff" stroke-opacity=".16" stroke-width="2"><path d="M160 268l26-13 30 9 18 28-6 30-28 18-34-7-16-27z"/><path d="M590 230l28-16 38 9 17 33-12 32-35 15-29-17-10-29z"/><path d="M740 365l22-12 27 7 16 24-7 28-25 16-28-9-10-27z"/><path d="M312 470l18-10 24 7 14 22-8 24-23 10-22-9-10-21z"/></g>
  <circle cx="420" cy="322" r="34" fill="url(#orb)"/><circle cx="420" cy="322" r="12" fill="#b9fff5"/>
  <circle cx="676" cy="494" r="30" fill="url(#orb)"/><circle cx="676" cy="494" r="10" fill="#b9fff5"/>
  <g transform="translate(486 566)"><ellipse cx="0" cy="22" rx="18" ry="30" fill="#6af0de" opacity=".35"/><path d="M0-30 23 20 10 17 0 30-10 17-23 20Z" fill="url(#ship)" stroke="#fff" stroke-opacity=".55" stroke-width="2"/><circle r="6" fill="#6af0de"/></g>
  <rect x="904" y="164" width="254" height="230" rx="28" fill="#0b0f1b" stroke="#fff" stroke-opacity=".08"/><text x="930" y="207" fill="#fff" font-family="Arial" font-size="21" font-weight="700">How it works</text><text x="930" y="244" fill="#c9d5ef" font-family="Arial" font-size="15">Asteroids cost a life.</text><text x="930" y="272" fill="#c9d5ef" font-family="Arial" font-size="15">Orbs award +40 points.</text><text x="930" y="300" fill="#c9d5ef" font-family="Arial" font-size="15">Score increases over time.</text><text x="930" y="328" fill="#c9d5ef" font-family="Arial" font-size="15">Spawn rate and speed rise</text><text x="930" y="352" fill="#c9d5ef" font-family="Arial" font-size="15">with difficulty.</text>
  <rect x="904" y="410" width="254" height="270" rx="28" fill="#0b0f1b" stroke="#fff" stroke-opacity=".08"/><text x="930" y="452" fill="#fff" font-family="Arial" font-size="21" font-weight="700">Run state</text><text x="930" y="494" fill="#8db5ff" font-family="Arial" font-size="13" letter-spacing="2">ACTIVE</text><text x="930" y="532" fill="#fff" font-family="Arial" font-size="17">3 starting lives</text><text x="930" y="562" fill="#fff" font-family="Arial" font-size="17">1.4s hit invincibility</text><text x="930" y="592" fill="#fff" font-family="Arial" font-size="17">960 × 600 logical canvas</text><text x="930" y="622" fill="#fff" font-family="Arial" font-size="17">HiDPI scaled rendering</text>
</svg>